<?xml version="1.0" standalone="no"?>
<!DOCTYPE svg PUBLIC "-//W3C//DTD SVG 20010904//EN"
 "http://www.w3.org/TR/2001/REC-SVG-20010904/DTD/svg10.dtd">
<svg version="1.0" xmlns="http://www.w3.org/2000/svg"
 width="256.000000pt" height="256.000000pt" viewBox="0 0 256.000000 256.000000"
 preserveAspectRatio="xMidYMid meet">

<g transform="translate(0.000000,256.000000) scale(0.100000,-0.100000)"
fill="#000000" stroke="none">
<path d="M477 2132 l-67 -68 0 -917 c0 -504 2 -917 5 -917 2 0 67 47 145 105
l140 105 663 0 663 0 62 63 62 63 -2 814 -3 815 -800 3 -800 2 -68 -68z m1548
-22 l-39 -40 -755 0 -755 0 39 40 39 40 755 0 755 0 -39 -40z m35 -1575 l-40
-40 0 775 0 774 38 39 37 38 3 -773 2 -773 -40 -40z m-82 718 l2 -773 -645 0
-645 0 -114 -85 c-63 -47 -117 -85 -120 -85 -8 0 -7 1705 1 1713 3 4 347 6
762 5 l756 -3 3 -772z"/>
<path d="M705 1828 c-3 -8 -4 -81 -3 -163 3 -142 4 -150 23 -150 19 0 20 8 23
125 l3 125 43 -80 c59 -108 69 -108 126 0 l45 86 3 -131 c3 -129 3 -131 25
-128 22 3 22 5 22 163 l0 160 -30 0 c-27 0 -33 -7 -75 -87 -25 -48 -47 -88
-50 -88 -3 0 -26 40 -51 88 -38 73 -50 88 -72 90 -16 2 -29 -2 -32 -10z"/>
<path d="M1134 1831 c-12 -5 -31 -22 -44 -38 -18 -23 -21 -37 -17 -76 6 -63
46 -120 119 -171 l56 -38 44 30 c103 71 151 157 128 228 -21 61 -83 86 -142
56 -30 -16 -39 -17 -50 -6 -18 18 -68 26 -94 15z m86 -75 c20 -36 38 -44 47
-19 27 76 113 68 113 -11 0 -41 -33 -91 -88 -133 l-43 -33 -44 30 c-74 51
-110 130 -80 176 23 36 72 30 95 -10z"/>
<path d="M1480 1675 c0 -157 1 -165 20 -165 18 0 20 8 22 121 l3 121 74 -111
c82 -123 94 -136 116 -127 13 5 15 29 13 163 -3 150 -4 158 -23 158 -19 0 -20
-8 -25 -117 l-5 -117 -79 120 c-111 168 -116 166 -116 -46z"/>
<path d="M700 1285 l0 -155 90 0 c83 0 90 1 90 20 0 18 -7 20 -65 20 l-65 0 0
135 0 135 -25 0 -25 0 0 -155z"/>
<path d="M917 1433 c-4 -3 -7 -73 -7 -155 l0 -148 25 0 25 0 0 155 c0 144 -1
155 -18 155 -10 0 -22 -3 -25 -7z"/>
<path d="M991 1423 c0 -10 26 -79 57 -153 46 -107 62 -136 78 -138 12 -2 24 3
27 10 3 7 28 68 56 136 54 130 62 166 35 160 -11 -2 -33 -46 -63 -120 -25 -65
-48 -118 -51 -118 -3 0 -27 54 -54 120 -38 94 -53 120 -67 120 -12 0 -19 -7
-18 -17z"/>
<path d="M1299 1436 c-2 -2 -3 -72 -1 -155 3 -142 4 -151 23 -151 17 0 19 7
19 60 0 56 2 60 23 60 16 0 35 -17 67 -60 43 -57 80 -78 80 -44 0 9 -18 38
-41 65 l-41 49 25 20 c50 39 43 116 -12 145 -27 13 -131 22 -142 11z m123 -53
c40 -36 7 -93 -54 -93 -27 0 -28 2 -28 55 l0 55 32 0 c17 0 40 -7 50 -17z"/>
<path d="M1550 1285 l0 -155 91 0 c81 0 90 2 87 18 -3 14 -16 18 -71 20 l-68
3 3 47 3 47 58 3 c49 3 57 6 57 22 0 18 -7 20 -60 20 l-60 0 0 45 0 45 70 0
c63 0 70 2 70 20 0 19 -7 20 -90 20 l-90 0 0 -155z"/>
<path d="M780 1049 c-48 -20 -70 -50 -70 -94 0 -49 33 -86 95 -105 64 -20 85
-37 85 -70 0 -58 -80 -81 -126 -35 -30 30 -64 33 -64 7 0 -35 46 -65 105 -70
67 -5 111 11 130 49 37 70 5 126 -94 164 -56 21 -72 32 -77 51 -14 56 66 86
113 42 35 -33 53 -32 53 3 0 19 -8 34 -22 43 -31 20 -97 28 -128 15z"/>
<path d="M1554 1046 c-63 -28 -83 -99 -44 -149 12 -15 47 -36 81 -48 89 -33
114 -87 55 -119 -32 -16 -93 -5 -109 20 -12 21 -57 28 -57 9 0 -43 57 -79 125
-79 86 0 135 50 121 123 -8 43 -30 63 -97 88 -87 33 -110 67 -71 102 27 24 78
21 104 -5 27 -27 47 -32 54 -13 9 22 -16 56 -51 71 -42 17 -71 17 -111 0z"/>
<path d="M1030 865 l0 -185 25 0 25 0 0 145 c0 80 3 145 8 145 4 0 28 -42 53
-93 37 -73 52 -93 70 -95 21 -2 30 9 74 95 l50 98 3 -148 3 -148 27 3 27 3 3
183 2 182 -37 0 c-38 0 -38 -1 -88 -96 -27 -53 -53 -97 -56 -100 -3 -2 -30 41
-60 96 -54 99 -54 100 -91 100 l-38 0 0 -185z"/>
</g>
</svg>
